<mxfile host="app.diagrams.net" modified="2023-03-19T12:56:58.851Z" agent="5.0 (Windows NT 10.0; Win64; x64) AppleWebKit/537.36 (KHTML, like Gecko) Chrome/111.0.0.0 Safari/537.36" etag="KL9YMW9bxQcIgIk52V1k" version="21.0.8" type="github">
  <diagram name="Page-1" id="2YBvvXClWsGukQMizWep">
    <mxGraphModel dx="1122" dy="498" grid="1" gridSize="10" guides="1" tooltips="1" connect="1" arrows="1" fold="1" page="1" pageScale="1" pageWidth="850" pageHeight="1100" math="0" shadow="0">
      <root>
        <mxCell id="0" />
        <mxCell id="1" parent="0" />
        <mxCell id="aM9ryv3xv72pqoxQDRHE-5" value=":Course" style="shape=umlLifeline;perimeter=lifelinePerimeter;whiteSpace=wrap;html=1;container=0;dropTarget=0;collapsible=0;recursiveResize=0;outlineConnect=0;portConstraint=eastwest;newEdgeStyle={&quot;edgeStyle&quot;:&quot;elbowEdgeStyle&quot;,&quot;elbow&quot;:&quot;vertical&quot;,&quot;curved&quot;:0,&quot;rounded&quot;:0};" parent="1" vertex="1">
          <mxGeometry x="220" y="40" width="100" height="360" as="geometry" />
        </mxCell>
        <mxCell id="1wEYlUaswg7C2DEvwCX--6" value="" style="html=1;points=[];perimeter=orthogonalPerimeter;outlineConnect=0;targetShapes=umlLifeline;portConstraint=eastwest;newEdgeStyle={&quot;edgeStyle&quot;:&quot;elbowEdgeStyle&quot;,&quot;elbow&quot;:&quot;vertical&quot;,&quot;curved&quot;:0,&quot;rounded&quot;:0};" vertex="1" parent="aM9ryv3xv72pqoxQDRHE-5">
          <mxGeometry x="45" y="60" width="10" height="290" as="geometry" />
        </mxCell>
        <mxCell id="1wEYlUaswg7C2DEvwCX--2" value=":Review" style="shape=umlLifeline;perimeter=lifelinePerimeter;whiteSpace=wrap;html=1;container=0;dropTarget=0;collapsible=0;recursiveResize=0;outlineConnect=0;portConstraint=eastwest;newEdgeStyle={&quot;edgeStyle&quot;:&quot;elbowEdgeStyle&quot;,&quot;elbow&quot;:&quot;vertical&quot;,&quot;curved&quot;:0,&quot;rounded&quot;:0};" vertex="1" parent="1">
          <mxGeometry x="400" y="40" width="100" height="360" as="geometry" />
        </mxCell>
        <mxCell id="1wEYlUaswg7C2DEvwCX--13" value="" style="html=1;points=[];perimeter=orthogonalPerimeter;outlineConnect=0;targetShapes=umlLifeline;portConstraint=eastwest;newEdgeStyle={&quot;edgeStyle&quot;:&quot;elbowEdgeStyle&quot;,&quot;elbow&quot;:&quot;vertical&quot;,&quot;curved&quot;:0,&quot;rounded&quot;:0};" vertex="1" parent="1wEYlUaswg7C2DEvwCX--2">
          <mxGeometry x="45" y="130" width="10" height="30" as="geometry" />
        </mxCell>
        <mxCell id="1wEYlUaswg7C2DEvwCX--3" value=":Promotion" style="shape=umlLifeline;perimeter=lifelinePerimeter;whiteSpace=wrap;html=1;container=0;dropTarget=0;collapsible=0;recursiveResize=0;outlineConnect=0;portConstraint=eastwest;newEdgeStyle={&quot;edgeStyle&quot;:&quot;elbowEdgeStyle&quot;,&quot;elbow&quot;:&quot;vertical&quot;,&quot;curved&quot;:0,&quot;rounded&quot;:0};" vertex="1" parent="1">
          <mxGeometry x="580" y="40" width="100" height="350" as="geometry" />
        </mxCell>
        <mxCell id="1wEYlUaswg7C2DEvwCX--16" value="" style="html=1;points=[];perimeter=orthogonalPerimeter;outlineConnect=0;targetShapes=umlLifeline;portConstraint=eastwest;newEdgeStyle={&quot;edgeStyle&quot;:&quot;elbowEdgeStyle&quot;,&quot;elbow&quot;:&quot;vertical&quot;,&quot;curved&quot;:0,&quot;rounded&quot;:0};" vertex="1" parent="1wEYlUaswg7C2DEvwCX--3">
          <mxGeometry x="45" y="180" width="10" height="40" as="geometry" />
        </mxCell>
        <mxCell id="1wEYlUaswg7C2DEvwCX--4" value=":Categories" style="shape=umlLifeline;perimeter=lifelinePerimeter;whiteSpace=wrap;html=1;container=0;dropTarget=0;collapsible=0;recursiveResize=0;outlineConnect=0;portConstraint=eastwest;newEdgeStyle={&quot;edgeStyle&quot;:&quot;elbowEdgeStyle&quot;,&quot;elbow&quot;:&quot;vertical&quot;,&quot;curved&quot;:0,&quot;rounded&quot;:0};" vertex="1" parent="1">
          <mxGeometry x="760" y="40" width="100" height="340" as="geometry" />
        </mxCell>
        <mxCell id="1wEYlUaswg7C2DEvwCX--20" value="" style="html=1;points=[];perimeter=orthogonalPerimeter;outlineConnect=0;targetShapes=umlLifeline;portConstraint=eastwest;newEdgeStyle={&quot;edgeStyle&quot;:&quot;elbowEdgeStyle&quot;,&quot;elbow&quot;:&quot;vertical&quot;,&quot;curved&quot;:0,&quot;rounded&quot;:0};" vertex="1" parent="1wEYlUaswg7C2DEvwCX--4">
          <mxGeometry x="45" y="260" width="10" height="40" as="geometry" />
        </mxCell>
        <mxCell id="1wEYlUaswg7C2DEvwCX--7" value="" style="shape=umlLifeline;perimeter=lifelinePerimeter;whiteSpace=wrap;html=1;container=1;dropTarget=0;collapsible=0;recursiveResize=0;outlineConnect=0;portConstraint=eastwest;newEdgeStyle={&quot;edgeStyle&quot;:&quot;elbowEdgeStyle&quot;,&quot;elbow&quot;:&quot;vertical&quot;,&quot;curved&quot;:0,&quot;rounded&quot;:0};participant=umlActor;" vertex="1" parent="1">
          <mxGeometry x="110" y="40" width="20" height="360" as="geometry" />
        </mxCell>
        <mxCell id="1wEYlUaswg7C2DEvwCX--26" value="" style="html=1;points=[];perimeter=orthogonalPerimeter;outlineConnect=0;targetShapes=umlLifeline;portConstraint=eastwest;newEdgeStyle={&quot;edgeStyle&quot;:&quot;elbowEdgeStyle&quot;,&quot;elbow&quot;:&quot;vertical&quot;,&quot;curved&quot;:0,&quot;rounded&quot;:0};" vertex="1" parent="1wEYlUaswg7C2DEvwCX--7">
          <mxGeometry x="5" y="70" width="10" height="280" as="geometry" />
        </mxCell>
        <mxCell id="1wEYlUaswg7C2DEvwCX--8" value="Student" style="text;align=center;fontStyle=1;verticalAlign=middle;spacingLeft=3;spacingRight=3;strokeColor=none;rotatable=0;points=[[0,0.5],[1,0.5]];portConstraint=eastwest;html=1;" vertex="1" parent="1">
          <mxGeometry x="80" y="80" width="80" height="26" as="geometry" />
        </mxCell>
        <mxCell id="1wEYlUaswg7C2DEvwCX--10" value="view_course(Name)" style="html=1;verticalAlign=bottom;endArrow=block;edgeStyle=elbowEdgeStyle;elbow=vertical;curved=0;rounded=0;" edge="1" parent="1" source="1wEYlUaswg7C2DEvwCX--26" target="1wEYlUaswg7C2DEvwCX--6">
          <mxGeometry width="80" relative="1" as="geometry">
            <mxPoint x="130" y="120" as="sourcePoint" />
            <mxPoint x="260" y="130" as="targetPoint" />
            <Array as="points">
              <mxPoint x="220" y="120" />
            </Array>
          </mxGeometry>
        </mxCell>
        <mxCell id="1wEYlUaswg7C2DEvwCX--11" value="check_course_review(name)" style="html=1;verticalAlign=bottom;endArrow=block;edgeStyle=elbowEdgeStyle;elbow=vertical;curved=0;rounded=0;" edge="1" parent="1" source="1wEYlUaswg7C2DEvwCX--6" target="1wEYlUaswg7C2DEvwCX--13">
          <mxGeometry width="80" relative="1" as="geometry">
            <mxPoint x="280" y="160" as="sourcePoint" />
            <mxPoint x="350" y="160.1" as="targetPoint" />
            <Array as="points">
              <mxPoint x="390" y="180" />
              <mxPoint x="400" y="170" />
              <mxPoint x="390" y="170" />
              <mxPoint x="410" y="160" />
              <mxPoint x="420" y="150" />
              <mxPoint x="430" y="150" />
              <mxPoint x="410" y="160" />
            </Array>
          </mxGeometry>
        </mxCell>
        <mxCell id="1wEYlUaswg7C2DEvwCX--12" value="calculate_promotion()" style="html=1;verticalAlign=bottom;endArrow=block;edgeStyle=elbowEdgeStyle;elbow=vertical;curved=0;rounded=0;" edge="1" parent="1" source="1wEYlUaswg7C2DEvwCX--6" target="1wEYlUaswg7C2DEvwCX--16">
          <mxGeometry width="80" relative="1" as="geometry">
            <mxPoint x="280" y="240" as="sourcePoint" />
            <mxPoint x="570" y="230" as="targetPoint" />
            <Array as="points">
              <mxPoint x="390" y="230" />
            </Array>
          </mxGeometry>
        </mxCell>
        <mxCell id="1wEYlUaswg7C2DEvwCX--14" value="return course review" style="html=1;verticalAlign=bottom;endArrow=open;dashed=1;endSize=8;edgeStyle=elbowEdgeStyle;elbow=vertical;curved=0;rounded=0;" edge="1" parent="1" source="1wEYlUaswg7C2DEvwCX--13" target="1wEYlUaswg7C2DEvwCX--6">
          <mxGeometry relative="1" as="geometry">
            <mxPoint x="440" y="190" as="sourcePoint" />
            <mxPoint x="280" y="190" as="targetPoint" />
            <Array as="points">
              <mxPoint x="400" y="200" />
              <mxPoint x="370" y="190" />
            </Array>
          </mxGeometry>
        </mxCell>
        <mxCell id="1wEYlUaswg7C2DEvwCX--15" value="Loop" style="shape=umlFrame;whiteSpace=wrap;html=1;pointerEvents=0;" vertex="1" parent="1">
          <mxGeometry x="250" y="130" width="220" height="80" as="geometry" />
        </mxCell>
        <mxCell id="1wEYlUaswg7C2DEvwCX--17" value="return promotion price" style="html=1;verticalAlign=bottom;endArrow=open;dashed=1;endSize=8;edgeStyle=elbowEdgeStyle;elbow=vertical;curved=0;rounded=0;" edge="1" parent="1" source="1wEYlUaswg7C2DEvwCX--16" target="1wEYlUaswg7C2DEvwCX--6">
          <mxGeometry relative="1" as="geometry">
            <mxPoint x="620" y="250" as="sourcePoint" />
            <mxPoint x="280" y="250" as="targetPoint" />
            <Array as="points">
              <mxPoint x="570" y="250" />
            </Array>
          </mxGeometry>
        </mxCell>
        <mxCell id="1wEYlUaswg7C2DEvwCX--21" value="check_categories(name)" style="html=1;verticalAlign=bottom;endArrow=block;edgeStyle=elbowEdgeStyle;elbow=vertical;curved=0;rounded=0;" edge="1" parent="1" source="1wEYlUaswg7C2DEvwCX--6" target="1wEYlUaswg7C2DEvwCX--20">
          <mxGeometry width="80" relative="1" as="geometry">
            <mxPoint x="280" y="310" as="sourcePoint" />
            <mxPoint x="800" y="310" as="targetPoint" />
            <Array as="points">
              <mxPoint x="340" y="310" />
            </Array>
          </mxGeometry>
        </mxCell>
        <mxCell id="1wEYlUaswg7C2DEvwCX--23" value="return categories" style="html=1;verticalAlign=bottom;endArrow=open;dashed=1;endSize=8;edgeStyle=elbowEdgeStyle;elbow=vertical;curved=0;rounded=0;" edge="1" parent="1" target="1wEYlUaswg7C2DEvwCX--6">
          <mxGeometry relative="1" as="geometry">
            <mxPoint x="800" y="330" as="sourcePoint" />
            <mxPoint x="280" y="330" as="targetPoint" />
            <Array as="points">
              <mxPoint x="690" y="330" />
              <mxPoint x="710" y="330" />
              <mxPoint x="575" y="330" />
            </Array>
          </mxGeometry>
        </mxCell>
        <mxCell id="1wEYlUaswg7C2DEvwCX--25" value="Loop" style="shape=umlFrame;whiteSpace=wrap;html=1;pointerEvents=0;" vertex="1" parent="1">
          <mxGeometry x="250" y="270" width="580" height="80" as="geometry" />
        </mxCell>
        <mxCell id="1wEYlUaswg7C2DEvwCX--27" value="return course information" style="html=1;verticalAlign=bottom;endArrow=open;dashed=1;endSize=8;edgeStyle=elbowEdgeStyle;elbow=vertical;curved=0;rounded=0;" edge="1" parent="1" target="1wEYlUaswg7C2DEvwCX--26">
          <mxGeometry relative="1" as="geometry">
            <mxPoint x="260" y="370" as="sourcePoint" />
            <mxPoint x="130" y="370" as="targetPoint" />
          </mxGeometry>
        </mxCell>
        <mxCell id="1wEYlUaswg7C2DEvwCX--28" value="View course" style="shape=umlFrame;whiteSpace=wrap;html=1;pointerEvents=0;" vertex="1" parent="1">
          <mxGeometry x="50" width="860" height="410" as="geometry" />
        </mxCell>
        <mxCell id="1wEYlUaswg7C2DEvwCX--29" value="" style="shape=umlLifeline;perimeter=lifelinePerimeter;whiteSpace=wrap;html=1;container=1;dropTarget=0;collapsible=0;recursiveResize=0;outlineConnect=0;portConstraint=eastwest;newEdgeStyle={&quot;edgeStyle&quot;:&quot;elbowEdgeStyle&quot;,&quot;elbow&quot;:&quot;vertical&quot;,&quot;curved&quot;:0,&quot;rounded&quot;:0};participant=umlActor;size=40;" vertex="1" parent="1">
          <mxGeometry x="110" y="490" width="20" height="220" as="geometry" />
        </mxCell>
        <mxCell id="1wEYlUaswg7C2DEvwCX--34" value="" style="html=1;points=[];perimeter=orthogonalPerimeter;outlineConnect=0;targetShapes=umlLifeline;portConstraint=eastwest;newEdgeStyle={&quot;edgeStyle&quot;:&quot;elbowEdgeStyle&quot;,&quot;elbow&quot;:&quot;vertical&quot;,&quot;curved&quot;:0,&quot;rounded&quot;:0};" vertex="1" parent="1wEYlUaswg7C2DEvwCX--29">
          <mxGeometry x="5" y="100" width="10" height="80" as="geometry" />
        </mxCell>
        <mxCell id="1wEYlUaswg7C2DEvwCX--30" value="Student" style="text;align=center;fontStyle=1;verticalAlign=middle;spacingLeft=3;spacingRight=3;strokeColor=none;rotatable=0;points=[[0,0.5],[1,0.5]];portConstraint=eastwest;html=1;" vertex="1" parent="1">
          <mxGeometry x="80" y="537" width="80" height="26" as="geometry" />
        </mxCell>
        <mxCell id="1wEYlUaswg7C2DEvwCX--31" value=":Cart" style="shape=umlLifeline;perimeter=lifelinePerimeter;whiteSpace=wrap;html=1;container=1;dropTarget=0;collapsible=0;recursiveResize=0;outlineConnect=0;portConstraint=eastwest;newEdgeStyle={&quot;edgeStyle&quot;:&quot;elbowEdgeStyle&quot;,&quot;elbow&quot;:&quot;vertical&quot;,&quot;curved&quot;:0,&quot;rounded&quot;:0};" vertex="1" parent="1">
          <mxGeometry x="280" y="480" width="100" height="230" as="geometry" />
        </mxCell>
        <mxCell id="1wEYlUaswg7C2DEvwCX--33" value="" style="html=1;points=[];perimeter=orthogonalPerimeter;outlineConnect=0;targetShapes=umlLifeline;portConstraint=eastwest;newEdgeStyle={&quot;edgeStyle&quot;:&quot;elbowEdgeStyle&quot;,&quot;elbow&quot;:&quot;vertical&quot;,&quot;curved&quot;:0,&quot;rounded&quot;:0};" vertex="1" parent="1wEYlUaswg7C2DEvwCX--31">
          <mxGeometry x="45" y="110" width="10" height="80" as="geometry" />
        </mxCell>
        <mxCell id="1wEYlUaswg7C2DEvwCX--32" value="add_to_cart(Course)" style="html=1;verticalAlign=bottom;endArrow=block;edgeStyle=elbowEdgeStyle;elbow=vertical;curved=0;rounded=0;" edge="1" parent="1" source="1wEYlUaswg7C2DEvwCX--34" target="1wEYlUaswg7C2DEvwCX--33">
          <mxGeometry width="80" relative="1" as="geometry">
            <mxPoint x="130" y="620" as="sourcePoint" />
            <mxPoint x="210" y="620" as="targetPoint" />
            <Array as="points">
              <mxPoint x="250" y="610" />
            </Array>
          </mxGeometry>
        </mxCell>
        <mxCell id="1wEYlUaswg7C2DEvwCX--35" value="return success" style="html=1;verticalAlign=bottom;endArrow=open;dashed=1;endSize=8;edgeStyle=elbowEdgeStyle;elbow=vertical;curved=0;rounded=0;" edge="1" parent="1" target="1wEYlUaswg7C2DEvwCX--34">
          <mxGeometry relative="1" as="geometry">
            <mxPoint x="320" y="650" as="sourcePoint" />
            <mxPoint x="130" y="650" as="targetPoint" />
          </mxGeometry>
        </mxCell>
        <mxCell id="1wEYlUaswg7C2DEvwCX--36" value="Add to cart" style="shape=umlFrame;whiteSpace=wrap;html=1;pointerEvents=0;" vertex="1" parent="1">
          <mxGeometry x="50" y="460" width="350" height="250" as="geometry" />
        </mxCell>
        <mxCell id="1wEYlUaswg7C2DEvwCX--37" value="" style="shape=umlLifeline;perimeter=lifelinePerimeter;whiteSpace=wrap;html=1;container=1;dropTarget=0;collapsible=0;recursiveResize=0;outlineConnect=0;portConstraint=eastwest;newEdgeStyle={&quot;edgeStyle&quot;:&quot;elbowEdgeStyle&quot;,&quot;elbow&quot;:&quot;vertical&quot;,&quot;curved&quot;:0,&quot;rounded&quot;:0};participant=umlActor;size=40;" vertex="1" parent="1">
          <mxGeometry x="510" y="490" width="20" height="220" as="geometry" />
        </mxCell>
        <mxCell id="1wEYlUaswg7C2DEvwCX--38" value="" style="html=1;points=[];perimeter=orthogonalPerimeter;outlineConnect=0;targetShapes=umlLifeline;portConstraint=eastwest;newEdgeStyle={&quot;edgeStyle&quot;:&quot;elbowEdgeStyle&quot;,&quot;elbow&quot;:&quot;vertical&quot;,&quot;curved&quot;:0,&quot;rounded&quot;:0};" vertex="1" parent="1wEYlUaswg7C2DEvwCX--37">
          <mxGeometry x="5" y="100" width="10" height="80" as="geometry" />
        </mxCell>
        <mxCell id="1wEYlUaswg7C2DEvwCX--39" value="Student" style="text;align=center;fontStyle=1;verticalAlign=middle;spacingLeft=3;spacingRight=3;strokeColor=none;rotatable=0;points=[[0,0.5],[1,0.5]];portConstraint=eastwest;html=1;" vertex="1" parent="1">
          <mxGeometry x="480" y="537" width="80" height="26" as="geometry" />
        </mxCell>
        <mxCell id="1wEYlUaswg7C2DEvwCX--40" value=":Wishlist" style="shape=umlLifeline;perimeter=lifelinePerimeter;whiteSpace=wrap;html=1;container=1;dropTarget=0;collapsible=0;recursiveResize=0;outlineConnect=0;portConstraint=eastwest;newEdgeStyle={&quot;edgeStyle&quot;:&quot;elbowEdgeStyle&quot;,&quot;elbow&quot;:&quot;vertical&quot;,&quot;curved&quot;:0,&quot;rounded&quot;:0};" vertex="1" parent="1">
          <mxGeometry x="680" y="480" width="100" height="230" as="geometry" />
        </mxCell>
        <mxCell id="1wEYlUaswg7C2DEvwCX--41" value="" style="html=1;points=[];perimeter=orthogonalPerimeter;outlineConnect=0;targetShapes=umlLifeline;portConstraint=eastwest;newEdgeStyle={&quot;edgeStyle&quot;:&quot;elbowEdgeStyle&quot;,&quot;elbow&quot;:&quot;vertical&quot;,&quot;curved&quot;:0,&quot;rounded&quot;:0};" vertex="1" parent="1wEYlUaswg7C2DEvwCX--40">
          <mxGeometry x="45" y="110" width="10" height="80" as="geometry" />
        </mxCell>
        <mxCell id="1wEYlUaswg7C2DEvwCX--42" value="add_to_wishlist(Course)" style="html=1;verticalAlign=bottom;endArrow=block;edgeStyle=elbowEdgeStyle;elbow=vertical;curved=0;rounded=0;" edge="1" parent="1" source="1wEYlUaswg7C2DEvwCX--38" target="1wEYlUaswg7C2DEvwCX--41">
          <mxGeometry width="80" relative="1" as="geometry">
            <mxPoint x="530" y="620" as="sourcePoint" />
            <mxPoint x="610" y="620" as="targetPoint" />
            <Array as="points">
              <mxPoint x="650" y="610" />
            </Array>
          </mxGeometry>
        </mxCell>
        <mxCell id="1wEYlUaswg7C2DEvwCX--43" value="return success" style="html=1;verticalAlign=bottom;endArrow=open;dashed=1;endSize=8;edgeStyle=elbowEdgeStyle;elbow=vertical;curved=0;rounded=0;" edge="1" parent="1" target="1wEYlUaswg7C2DEvwCX--38">
          <mxGeometry relative="1" as="geometry">
            <mxPoint x="720" y="650" as="sourcePoint" />
            <mxPoint x="530" y="650" as="targetPoint" />
          </mxGeometry>
        </mxCell>
        <mxCell id="1wEYlUaswg7C2DEvwCX--44" value="Add to wishlist" style="shape=umlFrame;whiteSpace=wrap;html=1;pointerEvents=0;" vertex="1" parent="1">
          <mxGeometry x="450" y="460" width="350" height="250" as="geometry" />
        </mxCell>
        <mxCell id="1wEYlUaswg7C2DEvwCX--45" value="" style="shape=umlLifeline;perimeter=lifelinePerimeter;whiteSpace=wrap;html=1;container=1;dropTarget=0;collapsible=0;recursiveResize=0;outlineConnect=0;portConstraint=eastwest;newEdgeStyle={&quot;edgeStyle&quot;:&quot;elbowEdgeStyle&quot;,&quot;elbow&quot;:&quot;vertical&quot;,&quot;curved&quot;:0,&quot;rounded&quot;:0};participant=umlActor;" vertex="1" parent="1">
          <mxGeometry x="110" y="790" width="20" height="300" as="geometry" />
        </mxCell>
        <mxCell id="1wEYlUaswg7C2DEvwCX--51" value="" style="html=1;points=[];perimeter=orthogonalPerimeter;outlineConnect=0;targetShapes=umlLifeline;portConstraint=eastwest;newEdgeStyle={&quot;edgeStyle&quot;:&quot;elbowEdgeStyle&quot;,&quot;elbow&quot;:&quot;vertical&quot;,&quot;curved&quot;:0,&quot;rounded&quot;:0};" vertex="1" parent="1wEYlUaswg7C2DEvwCX--45">
          <mxGeometry x="5" y="90" width="10" height="180" as="geometry" />
        </mxCell>
        <mxCell id="1wEYlUaswg7C2DEvwCX--46" value="Student" style="text;align=center;fontStyle=1;verticalAlign=middle;spacingLeft=3;spacingRight=3;strokeColor=none;rotatable=0;points=[[0,0.5],[1,0.5]];portConstraint=eastwest;html=1;" vertex="1" parent="1">
          <mxGeometry x="80" y="840" width="80" height="26" as="geometry" />
        </mxCell>
        <mxCell id="1wEYlUaswg7C2DEvwCX--47" value=":Review" style="shape=umlLifeline;perimeter=lifelinePerimeter;whiteSpace=wrap;html=1;container=1;dropTarget=0;collapsible=0;recursiveResize=0;outlineConnect=0;portConstraint=eastwest;newEdgeStyle={&quot;edgeStyle&quot;:&quot;elbowEdgeStyle&quot;,&quot;elbow&quot;:&quot;vertical&quot;,&quot;curved&quot;:0,&quot;rounded&quot;:0};" vertex="1" parent="1">
          <mxGeometry x="250" y="790" width="100" height="300" as="geometry" />
        </mxCell>
        <mxCell id="1wEYlUaswg7C2DEvwCX--50" value="" style="html=1;points=[];perimeter=orthogonalPerimeter;outlineConnect=0;targetShapes=umlLifeline;portConstraint=eastwest;newEdgeStyle={&quot;edgeStyle&quot;:&quot;elbowEdgeStyle&quot;,&quot;elbow&quot;:&quot;vertical&quot;,&quot;curved&quot;:0,&quot;rounded&quot;:0};" vertex="1" parent="1wEYlUaswg7C2DEvwCX--47">
          <mxGeometry x="45" y="80.17" width="10" height="159.83" as="geometry" />
        </mxCell>
        <mxCell id="1wEYlUaswg7C2DEvwCX--48" value=":Course" style="shape=umlLifeline;perimeter=lifelinePerimeter;whiteSpace=wrap;html=1;container=1;dropTarget=0;collapsible=0;recursiveResize=0;outlineConnect=0;portConstraint=eastwest;newEdgeStyle={&quot;edgeStyle&quot;:&quot;elbowEdgeStyle&quot;,&quot;elbow&quot;:&quot;vertical&quot;,&quot;curved&quot;:0,&quot;rounded&quot;:0};" vertex="1" parent="1">
          <mxGeometry x="490" y="790" width="100" height="300" as="geometry" />
        </mxCell>
        <mxCell id="1wEYlUaswg7C2DEvwCX--53" value="" style="html=1;points=[];perimeter=orthogonalPerimeter;outlineConnect=0;targetShapes=umlLifeline;portConstraint=eastwest;newEdgeStyle={&quot;edgeStyle&quot;:&quot;elbowEdgeStyle&quot;,&quot;elbow&quot;:&quot;vertical&quot;,&quot;curved&quot;:0,&quot;rounded&quot;:0};" vertex="1" parent="1wEYlUaswg7C2DEvwCX--48">
          <mxGeometry x="45" y="130" width="10" height="90" as="geometry" />
        </mxCell>
        <mxCell id="1wEYlUaswg7C2DEvwCX--56" value="update review" style="html=1;align=left;spacingLeft=2;endArrow=block;rounded=0;edgeStyle=orthogonalEdgeStyle;curved=0;rounded=0;" edge="1" target="1wEYlUaswg7C2DEvwCX--53" parent="1wEYlUaswg7C2DEvwCX--48">
          <mxGeometry relative="1" as="geometry">
            <mxPoint x="55.00000000000001" y="160" as="sourcePoint" />
            <Array as="points">
              <mxPoint x="85" y="160" />
              <mxPoint x="85" y="190" />
            </Array>
            <mxPoint x="60" y="190" as="targetPoint" />
          </mxGeometry>
        </mxCell>
        <mxCell id="1wEYlUaswg7C2DEvwCX--49" value="review_course()" style="html=1;verticalAlign=bottom;endArrow=block;edgeStyle=elbowEdgeStyle;elbow=vertical;curved=0;rounded=0;" edge="1" parent="1" source="1wEYlUaswg7C2DEvwCX--51" target="1wEYlUaswg7C2DEvwCX--50">
          <mxGeometry width="80" relative="1" as="geometry">
            <mxPoint x="140" y="910.17" as="sourcePoint" />
            <mxPoint x="220" y="910.17" as="targetPoint" />
            <Array as="points">
              <mxPoint x="220" y="910" />
            </Array>
          </mxGeometry>
        </mxCell>
        <mxCell id="1wEYlUaswg7C2DEvwCX--52" value="add_review_to_course()" style="html=1;verticalAlign=bottom;endArrow=block;edgeStyle=elbowEdgeStyle;elbow=vertical;curved=0;rounded=0;" edge="1" parent="1" source="1wEYlUaswg7C2DEvwCX--50" target="1wEYlUaswg7C2DEvwCX--53">
          <mxGeometry width="80" relative="1" as="geometry">
            <mxPoint x="310" y="939.75" as="sourcePoint" />
            <mxPoint x="390" y="939.75" as="targetPoint" />
            <Array as="points">
              <mxPoint x="420" y="930" />
            </Array>
          </mxGeometry>
        </mxCell>
        <mxCell id="1wEYlUaswg7C2DEvwCX--57" value="return success" style="html=1;verticalAlign=bottom;endArrow=open;dashed=1;endSize=8;edgeStyle=elbowEdgeStyle;elbow=vertical;curved=0;rounded=0;" edge="1" parent="1" target="1wEYlUaswg7C2DEvwCX--50">
          <mxGeometry relative="1" as="geometry">
            <mxPoint x="530" y="990" as="sourcePoint" />
            <mxPoint x="310" y="990" as="targetPoint" />
            <Array as="points">
              <mxPoint x="510" y="990" />
              <mxPoint x="400" y="990" />
            </Array>
          </mxGeometry>
        </mxCell>
        <mxCell id="1wEYlUaswg7C2DEvwCX--59" value="return success" style="html=1;verticalAlign=bottom;endArrow=open;dashed=1;endSize=8;edgeStyle=elbowEdgeStyle;elbow=vertical;curved=0;rounded=0;" edge="1" parent="1">
          <mxGeometry relative="1" as="geometry">
            <mxPoint x="290" y="1020" as="sourcePoint" />
            <mxPoint x="125" y="1020" as="targetPoint" />
            <Array as="points" />
          </mxGeometry>
        </mxCell>
        <mxCell id="1wEYlUaswg7C2DEvwCX--60" value="Review course" style="shape=umlFrame;whiteSpace=wrap;html=1;pointerEvents=0;" vertex="1" parent="1">
          <mxGeometry x="50" y="760" width="620" height="360" as="geometry" />
        </mxCell>
        <mxCell id="1wEYlUaswg7C2DEvwCX--61" value="" style="shape=umlLifeline;perimeter=lifelinePerimeter;whiteSpace=wrap;html=1;container=1;dropTarget=0;collapsible=0;recursiveResize=0;outlineConnect=0;portConstraint=eastwest;newEdgeStyle={&quot;edgeStyle&quot;:&quot;elbowEdgeStyle&quot;,&quot;elbow&quot;:&quot;vertical&quot;,&quot;curved&quot;:0,&quot;rounded&quot;:0};participant=umlActor;" vertex="1" parent="1">
          <mxGeometry x="1080" y="55" width="20" height="415" as="geometry" />
        </mxCell>
        <mxCell id="1wEYlUaswg7C2DEvwCX--66" value="" style="html=1;points=[];perimeter=orthogonalPerimeter;outlineConnect=0;targetShapes=umlLifeline;portConstraint=eastwest;newEdgeStyle={&quot;edgeStyle&quot;:&quot;elbowEdgeStyle&quot;,&quot;elbow&quot;:&quot;vertical&quot;,&quot;curved&quot;:0,&quot;rounded&quot;:0};" vertex="1" parent="1wEYlUaswg7C2DEvwCX--61">
          <mxGeometry x="5" y="90" width="10" height="280" as="geometry" />
        </mxCell>
        <mxCell id="1wEYlUaswg7C2DEvwCX--62" value="Student" style="text;align=center;fontStyle=1;verticalAlign=middle;spacingLeft=3;spacingRight=3;strokeColor=none;rotatable=0;points=[[0,0.5],[1,0.5]];portConstraint=eastwest;html=1;" vertex="1" parent="1">
          <mxGeometry x="1050" y="106" width="80" height="26" as="geometry" />
        </mxCell>
        <mxCell id="1wEYlUaswg7C2DEvwCX--63" value=":Course" style="shape=umlLifeline;perimeter=lifelinePerimeter;whiteSpace=wrap;html=1;container=1;dropTarget=0;collapsible=0;recursiveResize=0;outlineConnect=0;portConstraint=eastwest;newEdgeStyle={&quot;edgeStyle&quot;:&quot;elbowEdgeStyle&quot;,&quot;elbow&quot;:&quot;vertical&quot;,&quot;curved&quot;:0,&quot;rounded&quot;:0};" vertex="1" parent="1">
          <mxGeometry x="1275" y="55" width="100" height="415" as="geometry" />
        </mxCell>
        <mxCell id="1wEYlUaswg7C2DEvwCX--67" value="" style="html=1;points=[];perimeter=orthogonalPerimeter;outlineConnect=0;targetShapes=umlLifeline;portConstraint=eastwest;newEdgeStyle={&quot;edgeStyle&quot;:&quot;elbowEdgeStyle&quot;,&quot;elbow&quot;:&quot;vertical&quot;,&quot;curved&quot;:0,&quot;rounded&quot;:0};" vertex="1" parent="1wEYlUaswg7C2DEvwCX--63">
          <mxGeometry x="45" y="90" width="10" height="270" as="geometry" />
        </mxCell>
        <mxCell id="1wEYlUaswg7C2DEvwCX--64" value=":StudentCourse" style="shape=umlLifeline;perimeter=lifelinePerimeter;whiteSpace=wrap;html=1;container=1;dropTarget=0;collapsible=0;recursiveResize=0;outlineConnect=0;portConstraint=eastwest;newEdgeStyle={&quot;edgeStyle&quot;:&quot;elbowEdgeStyle&quot;,&quot;elbow&quot;:&quot;vertical&quot;,&quot;curved&quot;:0,&quot;rounded&quot;:0};" vertex="1" parent="1">
          <mxGeometry x="1560" y="49.5" width="100" height="375" as="geometry" />
        </mxCell>
        <mxCell id="1wEYlUaswg7C2DEvwCX--69" value="" style="html=1;points=[];perimeter=orthogonalPerimeter;outlineConnect=0;targetShapes=umlLifeline;portConstraint=eastwest;newEdgeStyle={&quot;edgeStyle&quot;:&quot;elbowEdgeStyle&quot;,&quot;elbow&quot;:&quot;vertical&quot;,&quot;curved&quot;:0,&quot;rounded&quot;:0};" vertex="1" parent="1wEYlUaswg7C2DEvwCX--64">
          <mxGeometry x="45" y="90" width="10" height="240" as="geometry" />
        </mxCell>
        <mxCell id="1wEYlUaswg7C2DEvwCX--65" value=":CourseViewChapter" style="shape=umlLifeline;perimeter=lifelinePerimeter;whiteSpace=wrap;html=1;container=1;dropTarget=0;collapsible=0;recursiveResize=0;outlineConnect=0;portConstraint=eastwest;newEdgeStyle={&quot;edgeStyle&quot;:&quot;elbowEdgeStyle&quot;,&quot;elbow&quot;:&quot;vertical&quot;,&quot;curved&quot;:0,&quot;rounded&quot;:0};" vertex="1" parent="1">
          <mxGeometry x="1720" y="55" width="100" height="375" as="geometry" />
        </mxCell>
        <mxCell id="1wEYlUaswg7C2DEvwCX--71" value="" style="html=1;points=[];perimeter=orthogonalPerimeter;outlineConnect=0;targetShapes=umlLifeline;portConstraint=eastwest;newEdgeStyle={&quot;edgeStyle&quot;:&quot;elbowEdgeStyle&quot;,&quot;elbow&quot;:&quot;vertical&quot;,&quot;curved&quot;:0,&quot;rounded&quot;:0};" vertex="1" parent="1wEYlUaswg7C2DEvwCX--65">
          <mxGeometry x="45" y="150" width="10" height="80" as="geometry" />
        </mxCell>
        <mxCell id="1wEYlUaswg7C2DEvwCX--68" value="Study_Course(student_id,course_name)" style="html=1;verticalAlign=bottom;endArrow=block;edgeStyle=elbowEdgeStyle;elbow=vertical;curved=0;rounded=0;" edge="1" parent="1" source="1wEYlUaswg7C2DEvwCX--66">
          <mxGeometry width="80" relative="1" as="geometry">
            <mxPoint x="1130" y="169.57999999999998" as="sourcePoint" />
            <mxPoint x="1320" y="170" as="targetPoint" />
            <Array as="points">
              <mxPoint x="1310" y="170" />
              <mxPoint x="1290" y="170" />
              <mxPoint x="1240" y="170" />
              <mxPoint x="1280" y="170" />
            </Array>
          </mxGeometry>
        </mxCell>
        <mxCell id="1wEYlUaswg7C2DEvwCX--70" value="check_student_course(student_id,course_name)" style="html=1;verticalAlign=bottom;endArrow=block;edgeStyle=elbowEdgeStyle;elbow=vertical;curved=0;rounded=0;" edge="1" parent="1" target="1wEYlUaswg7C2DEvwCX--69">
          <mxGeometry width="80" relative="1" as="geometry">
            <mxPoint x="1330" y="190" as="sourcePoint" />
            <mxPoint x="1510" y="190" as="targetPoint" />
            <Array as="points">
              <mxPoint x="1470" y="185" />
            </Array>
          </mxGeometry>
        </mxCell>
        <mxCell id="1wEYlUaswg7C2DEvwCX--72" value="get_course_chapter(course)" style="html=1;verticalAlign=bottom;endArrow=block;edgeStyle=elbowEdgeStyle;elbow=vertical;curved=0;rounded=0;" edge="1" parent="1" source="1wEYlUaswg7C2DEvwCX--69" target="1wEYlUaswg7C2DEvwCX--71">
          <mxGeometry width="80" relative="1" as="geometry">
            <mxPoint x="1530" y="209.29" as="sourcePoint" />
            <mxPoint x="1610" y="209.29" as="targetPoint" />
            <Array as="points">
              <mxPoint x="1660" y="230" />
              <mxPoint x="1700" y="210" />
            </Array>
          </mxGeometry>
        </mxCell>
        <mxCell id="1wEYlUaswg7C2DEvwCX--73" value="alt" style="shape=umlFrame;whiteSpace=wrap;html=1;pointerEvents=0;" vertex="1" parent="1">
          <mxGeometry x="1060" y="200" width="820" height="230" as="geometry" />
        </mxCell>
        <mxCell id="1wEYlUaswg7C2DEvwCX--74" value="return course chapter" style="html=1;verticalAlign=bottom;endArrow=open;dashed=1;endSize=8;edgeStyle=elbowEdgeStyle;elbow=vertical;curved=0;rounded=0;" edge="1" parent="1" source="1wEYlUaswg7C2DEvwCX--71" target="1wEYlUaswg7C2DEvwCX--69">
          <mxGeometry relative="1" as="geometry">
            <mxPoint x="1600" y="262.31" as="sourcePoint" />
            <mxPoint x="1530" y="262" as="targetPoint" />
            <Array as="points">
              <mxPoint x="1700" y="262" />
              <mxPoint x="1540" y="262" />
              <mxPoint x="1530" y="262" />
              <mxPoint x="1540" y="262" />
              <mxPoint x="1530" y="262" />
            </Array>
          </mxGeometry>
        </mxCell>
        <mxCell id="1wEYlUaswg7C2DEvwCX--78" value="return course chapter" style="html=1;verticalAlign=bottom;endArrow=open;dashed=1;endSize=8;edgeStyle=elbowEdgeStyle;elbow=vertical;curved=0;rounded=0;" edge="1" parent="1">
          <mxGeometry relative="1" as="geometry">
            <mxPoint x="1510" y="280" as="sourcePoint" />
            <mxPoint x="1330" y="280" as="targetPoint" />
            <Array as="points">
              <mxPoint x="1345" y="280" />
              <mxPoint x="1335" y="280" />
              <mxPoint x="1345" y="280" />
              <mxPoint x="1335" y="280" />
            </Array>
          </mxGeometry>
        </mxCell>
        <mxCell id="1wEYlUaswg7C2DEvwCX--79" value="return course" style="html=1;verticalAlign=bottom;endArrow=open;dashed=1;endSize=8;edgeStyle=elbowEdgeStyle;elbow=vertical;curved=0;rounded=0;" edge="1" parent="1" source="1wEYlUaswg7C2DEvwCX--67" target="1wEYlUaswg7C2DEvwCX--66">
          <mxGeometry relative="1" as="geometry">
            <mxPoint x="1275" y="309.78999999999996" as="sourcePoint" />
            <mxPoint x="1100" y="300" as="targetPoint" />
            <Array as="points">
              <mxPoint x="1270" y="300" />
              <mxPoint x="1270" y="310" />
              <mxPoint x="1130" y="310" />
              <mxPoint x="1100" y="309.78999999999996" />
              <mxPoint x="1110" y="309.78999999999996" />
              <mxPoint x="1100" y="309.78999999999996" />
            </Array>
          </mxGeometry>
        </mxCell>
        <mxCell id="1wEYlUaswg7C2DEvwCX--80" value="return fail" style="html=1;verticalAlign=bottom;endArrow=open;dashed=1;endSize=8;edgeStyle=elbowEdgeStyle;elbow=vertical;curved=0;rounded=0;" edge="1" parent="1" source="1wEYlUaswg7C2DEvwCX--69" target="1wEYlUaswg7C2DEvwCX--67">
          <mxGeometry relative="1" as="geometry">
            <mxPoint x="1510" y="350" as="sourcePoint" />
            <mxPoint x="1430" y="350" as="targetPoint" />
            <Array as="points">
              <mxPoint x="1490" y="360" />
            </Array>
          </mxGeometry>
        </mxCell>
        <mxCell id="1wEYlUaswg7C2DEvwCX--81" value="return fail" style="html=1;verticalAlign=bottom;endArrow=open;dashed=1;endSize=8;edgeStyle=elbowEdgeStyle;elbow=vertical;curved=0;rounded=0;" edge="1" parent="1" source="1wEYlUaswg7C2DEvwCX--67" target="1wEYlUaswg7C2DEvwCX--66">
          <mxGeometry relative="1" as="geometry">
            <mxPoint x="1285" y="380" as="sourcePoint" />
            <mxPoint x="1100" y="380" as="targetPoint" />
            <Array as="points">
              <mxPoint x="1260" y="380" />
            </Array>
          </mxGeometry>
        </mxCell>
        <mxCell id="1wEYlUaswg7C2DEvwCX--82" value="" style="text;strokeColor=none;fillColor=none;align=left;verticalAlign=middle;spacingTop=-1;spacingLeft=4;spacingRight=4;rotatable=0;labelPosition=right;points=[];portConstraint=eastwest;" vertex="1" parent="1">
          <mxGeometry x="1830" y="230" width="20" height="14" as="geometry" />
        </mxCell>
        <mxCell id="1wEYlUaswg7C2DEvwCX--83" value="course in StudentCourse" style="text;html=1;strokeColor=none;fillColor=none;align=center;verticalAlign=middle;whiteSpace=wrap;rounded=0;" vertex="1" parent="1">
          <mxGeometry x="1780" y="214" width="90" height="30" as="geometry" />
        </mxCell>
        <mxCell id="1wEYlUaswg7C2DEvwCX--84" value="course not in StudentCourse" style="text;html=1;strokeColor=none;fillColor=none;align=center;verticalAlign=middle;whiteSpace=wrap;rounded=0;" vertex="1" parent="1">
          <mxGeometry x="1770" y="340" width="90" height="30" as="geometry" />
        </mxCell>
        <mxCell id="1wEYlUaswg7C2DEvwCX--87" value="" style="endArrow=none;dashed=1;html=1;rounded=0;exitX=-0.002;exitY=0.531;exitDx=0;exitDy=0;exitPerimeter=0;" edge="1" parent="1" source="1wEYlUaswg7C2DEvwCX--73" target="1wEYlUaswg7C2DEvwCX--73">
          <mxGeometry width="50" height="50" relative="1" as="geometry">
            <mxPoint x="1610" y="320" as="sourcePoint" />
            <mxPoint x="1660" y="270" as="targetPoint" />
            <Array as="points">
              <mxPoint x="1850" y="320" />
              <mxPoint x="1860" y="320" />
            </Array>
          </mxGeometry>
        </mxCell>
        <mxCell id="1wEYlUaswg7C2DEvwCX--88" value="Study Course" style="shape=umlFrame;whiteSpace=wrap;html=1;pointerEvents=0;" vertex="1" parent="1">
          <mxGeometry x="1020" y="14" width="880" height="456" as="geometry" />
        </mxCell>
      </root>
    </mxGraphModel>
  </diagram>
</mxfile>
